<?xml version="1.0" encoding="iso-8859-1"?>
<!-- Generator: Adobe Illustrator 23.1.1, SVG Export Plug-In . SVG Version: 6.00 Build 0)  -->
<svg version="1.1" id="_x31_-outline-expand" xmlns="http://www.w3.org/2000/svg" xmlns:xlink="http://www.w3.org/1999/xlink"
	 x="0px" y="0px" width="64px" height="64px" viewBox="0 0 64 64" style="enable-background:new 0 0 64 64;" xml:space="preserve">
<path d="M34,26c0-0.379-0.214-0.725-0.553-0.895l-6-3l-0.895,1.789L30.764,26l-4.211,2.105l0.895,1.789l6-3
	C33.786,26.725,34,26.379,34,26z"/>
<path d="M40.553,26.895l6,3l0.895-1.789L43.236,26l4.211-2.105l-0.895-1.789l-6,3C40.214,25.275,40,25.621,40,26
	S40.214,26.725,40.553,26.895z"/>
<path d="M55,50h-9v-4.273c5.392-2.913,9.223-8.355,9.893-14.727H57c2.757,0,5-2.243,5-5s-2.243-5-5-5h-1
	c0-0.952-0.098-1.917-0.26-2.876C56.569,17.08,57,15.613,57,13.667c0-4.715-5.006-11.025-5.219-11.292
	c-0.38-0.474-1.182-0.474-1.562,0c-0.106,0.132-1.394,1.757-2.664,3.935C44.962,4.799,42.028,4,39,4H23
	c-0.821,0-1.57-0.521-1.865-1.295c-0.165-0.434-0.603-0.693-1.067-0.636c-1.833,0.246-3.528,1.234-4.65,2.713
	c-1.133,1.493-1.611,3.349-1.348,5.228c0.368,2.62,2.263,4.742,4.747,5.589C18.285,17.371,18,19.182,18,21v8
	c0,7.222,4.052,13.514,10,16.727V50h-9c-3.86,0-7,3.14-7,7v4c0,0.552,0.448,1,1,1h48c0.552,0,1-0.448,1-1v-4
	C62,53.14,58.86,50,55,50z M54,20.898c-0.754-0.155-1.452-0.494-2.056-0.963c0.741-0.069,1.402-0.221,1.978-0.459
	C53.97,19.952,53.996,20.427,54,20.898z M57,23c1.654,0,3,1.346,3,3s-1.346,3-3,3h-1v-6H57z M51,4.674c1.355,1.901,4,5.993,4,8.993
	C55,17.275,53.469,18,51,18s-4-0.725-4-4.333C47,10.667,49.645,6.575,51,4.674z M16.05,9.731c-0.189-1.347,0.152-2.675,0.96-3.74
	c0.673-0.888,1.598-1.513,2.65-1.803C20.391,5.297,21.646,6,23,6h16c2.694,0,5.303,0.718,7.605,2.072
	C45.71,9.891,45,11.892,45,13.667c0,0.119,0.018,0.218,0.021,0.333H21.21C18.61,14,16.392,12.165,16.05,9.731z M20,29v-8
	c0-1.688,0.276-3.371,0.79-5.019C20.93,15.989,21.069,16,21.21,16h24.062c0.507,2.098,1.788,3.355,3.868,3.797
	c1.105,1.699,2.876,2.839,4.86,3.127V29c0,9.374-7.626,17-17,17S20,38.374,20,29z M37,48c2.473,0,4.831-0.489,7-1.353v3.799
	l-7,4.375l-7-4.375v-3.799C32.169,47.511,34.527,48,37,48z M60,60H14v-3c0-2.757,2.243-5,5-5h9.713l7.757,4.848
	c0.324,0.202,0.735,0.202,1.06,0L45.287,52H55c2.757,0,5,2.243,5,5V60z"/>
<path d="M43,40c0-3.309-2.691-6-6-6s-6,2.691-6,6c0,0.552,0.448,1,1,1h10C42.552,41,43,40.552,43,40z M33.126,39
	c0.445-1.723,2.013-3,3.874-3s3.428,1.277,3.874,3H33.126z"/>
<path d="M4.5,19.002c0-1.053-0.386-1.632-0.667-2.055C3.611,16.615,3.5,16.448,3.5,16h-2c0,1.053,0.386,1.633,0.668,2.056
	C2.389,18.388,2.5,18.555,2.5,19.002c0,0.448-0.111,0.615-0.333,0.947C1.886,20.373,1.5,20.952,1.5,22.005
	c0,1.052,0.386,1.631,0.668,2.054C2.389,24.39,2.5,24.556,2.5,25.003c0,0.446-0.111,0.612-0.332,0.943
	C1.886,26.369,1.5,26.948,1.5,28h2c0-0.446,0.111-0.612,0.332-0.943C4.114,26.634,4.5,26.055,4.5,25.003
	c0-1.053-0.386-1.631-0.668-2.054C3.611,22.618,3.5,22.452,3.5,22.005c0-0.448,0.111-0.615,0.333-0.947
	C4.114,20.635,4.5,20.056,4.5,19.002z"/>
<path d="M10.5,19.002c0-1.053-0.386-1.632-0.667-2.055C9.611,16.615,9.5,16.448,9.5,16h-2c0,1.053,0.386,1.633,0.668,2.056
	C8.389,18.388,8.5,18.555,8.5,19.002c0,0.448-0.111,0.615-0.333,0.947C7.886,20.373,7.5,20.952,7.5,22.005
	c0,1.052,0.386,1.631,0.668,2.054C8.389,24.39,8.5,24.556,8.5,25.003c0,0.446-0.111,0.612-0.332,0.943
	C7.886,26.369,7.5,26.948,7.5,28h2c0-0.446,0.111-0.612,0.332-0.943c0.282-0.423,0.668-1.001,0.668-2.054
	c0-1.053-0.386-1.631-0.668-2.054C9.611,22.618,9.5,22.452,9.5,22.005c0-0.448,0.111-0.615,0.333-0.947
	C10.114,20.635,10.5,20.056,10.5,19.002z"/>
<path d="M13.5,28h2c0-0.446,0.111-0.612,0.332-0.943c0.282-0.423,0.668-1.001,0.668-2.054c0-1.053-0.386-1.631-0.668-2.054
	c-0.221-0.331-0.332-0.497-0.332-0.943c0-0.448,0.111-0.615,0.333-0.947c0.282-0.423,0.667-1.002,0.667-2.056
	s-0.386-1.632-0.667-2.055C15.611,16.615,15.5,16.448,15.5,16h-2c0,1.053,0.386,1.633,0.668,2.056
	c0.221,0.332,0.332,0.499,0.332,0.947c0,0.448-0.111,0.615-0.333,0.947c-0.282,0.423-0.667,1.002-0.667,2.056
	c0,1.052,0.386,1.631,0.668,2.054c0.221,0.331,0.332,0.497,0.332,0.944c0,0.446-0.111,0.612-0.332,0.943
	C13.886,26.369,13.5,26.948,13.5,28z"/>
</svg>
