<?xml version="1.0" encoding="utf-8"?>
<!-- Generator: Adobe Illustrator 17.0.0, SVG Export Plug-In . SVG Version: 6.00 Build 0)  -->
<!DOCTYPE svg PUBLIC "-//W3C//DTD SVG 1.1//EN" "http://www.w3.org/Graphics/SVG/1.1/DTD/svg11.dtd">
<svg version="1.1" id="Capa_1" xmlns="http://www.w3.org/2000/svg" xmlns:xlink="http://www.w3.org/1999/xlink" x="0px" y="0px"
	 width="595.28px" height="841.89px" viewBox="0 0 595.28 841.89" enable-background="new 0 0 595.28 841.89" xml:space="preserve">
<g>
	<g>
		<g>
			<path fill="#1B1B47" d="M496.067,123.305c-54.705,0-99.213,44.508-99.213,99.213c0,47.453,70.305,143.494,86.777,165.353
				c-0.005,7.061,0,13.994-0.171,20.357c-0.181,6.842,5.22,12.547,12.074,12.729c0.109,0,0.219,0,0.339,0
				c6.685,0,12.208-5.341,12.389-12.074c0.171-6.529,0.166-13.657,0.171-20.919c16.363-21.709,86.846-117.938,86.846-165.446
				C595.28,167.813,550.772,123.305,496.067,123.305z M496.067,362.982c-27.262-37.507-74.41-108.89-74.41-140.464
				c0-41.032,33.378-74.41,74.41-74.41s74.41,33.378,74.41,74.41C570.477,254.092,523.329,325.473,496.067,362.982z"/>
			<path fill="#1B1B47" d="M496.067,197.715c-13.673,0-24.803,11.13-24.803,24.803s11.13,24.803,24.803,24.803
				s24.803-11.129,24.803-24.803C520.87,208.845,509.74,197.715,496.067,197.715z"/>
			<path fill="#1B1B47" d="M148.82,396.142c-41.032,0-74.41,33.378-74.41,74.41s33.378,74.41,74.41,74.41s74.41-33.378,74.41-74.41
				S189.852,396.142,148.82,396.142z M148.82,520.158c-27.358,0-49.607-22.247-49.607-49.607c0-27.36,22.249-49.606,49.607-49.606
				s49.607,22.247,49.607,49.607C198.427,497.912,176.178,520.158,148.82,520.158z"/>
			<path fill="#1B1B47" d="M336.674,570.274c-6.419-2.495-13.565,0.691-16.047,7.085c-5.559,14.363-12.51,31.113-21.885,46.457
				c-3.573,5.849-1.72,13.48,4.118,17.053c2.023,1.236,4.251,1.817,6.455,1.817c4.179,0,8.26-2.108,10.598-5.934
				c10.392-17.028,17.887-35.049,23.846-50.43C346.23,579.938,343.057,572.757,336.674,570.274z"/>
			<path fill="#1B1B47" d="M266.745,660.779c-12.426,9.846-26.547,17.258-43.188,22.672c-6.516,2.12-10.077,9.12-7.957,15.635
				c1.708,5.232,6.564,8.563,11.796,8.563c1.272,0,2.567-0.194,3.839-0.606c19.22-6.249,36.345-15.271,50.915-26.814
				c5.366-4.263,6.274-12.063,2.023-17.428C279.885,657.449,272.098,656.492,266.745,660.779z"/>
			<path fill="#1B1B47" d="M379.607,480.737c-20.467,11.615-31.839,31.779-38.622,45.925c-2.967,6.177-0.364,13.589,5.813,16.543
				c1.732,0.836,3.561,1.223,5.353,1.223c4.626,0,9.059-2.592,11.191-7.036c8.611-17.961,17.404-28.776,28.521-35.098
				c5.947-3.379,8.042-10.949,4.651-16.907C393.148,479.429,385.602,477.334,379.607,480.737z"/>
			<path fill="#1B1B47" d="M491.464,450.036c-5.632-3.815-13.371-2.35-17.222,3.318c-4.081,6.032-12.438,14.327-37.714,16.592
				c-6.819,0.617-11.857,6.636-11.239,13.467c0.581,6.443,5.995,11.287,12.342,11.287c0.376,0,0.751-0.012,1.127-0.049
				c26.85-2.41,45.174-11.372,56.026-27.396C498.623,461.589,497.132,453.875,491.464,450.036z"/>
			<path fill="#1B1B47" d="M178.206,693.943c39.132-41.73,119.434-137.733,119.434-223.39c0-83.445-65.375-148.82-148.82-148.82
				S0,387.107,0,470.552C0,581.307,134.577,709.78,140.306,715.195c2.386,2.265,5.451,3.391,8.514,3.391
				c9.035,0,17.621-0.315,25.76-0.932c6.831-0.521,11.953-6.468,11.432-13.298C185.64,699.466,182.477,695.654,178.206,693.943z
				 M148.82,688.695c-29.297-29.89-124.017-133.124-124.017-218.143c0-69.542,54.476-124.017,124.017-124.017
				s124.017,54.475,124.017,124.017C272.837,555.571,178.117,658.805,148.82,688.695z"/>
		</g>
	</g>
</g>
</svg>
