<?xml version="1.0" encoding="iso-8859-1"?>
<!-- Generator: Adobe Illustrator 21.1.0, SVG Export Plug-In . SVG Version: 6.00 Build 0)  -->
<svg version="1.1" id="Layer_1" xmlns="http://www.w3.org/2000/svg" xmlns:xlink="http://www.w3.org/1999/xlink" x="0px" y="0px" width="100px" height="100px"
	 viewBox="0 0 100.354 100.352" style="enable-background:new 0 0 100.354 100.352;" xml:space="preserve">
<path d="M88.118,56.196H74.572l8.777-11.001c0.031-0.04,0.061-0.081,0.088-0.123c2.235-3.47,3.417-7.429,3.417-11.448
	c0-11.762-9.577-21.331-21.35-21.331c-8.988,0-16.697,5.588-19.833,13.472c-3.137-7.884-10.848-13.472-19.839-13.472
	c-11.768,0-21.341,9.569-21.341,21.331c0,4.531,1.467,8.907,4.276,12.7L44.501,90.95c0.285,0.355,0.715,0.562,1.171,0.562
	c0,0,0.001,0,0.001,0c0.456,0,0.887-0.208,1.171-0.564l25.334-31.753h15.94c0.828,0,1.5-0.672,1.5-1.5S88.946,56.196,88.118,56.196z
	 M7.491,33.624c0-10.107,8.228-18.331,18.341-18.331c10.113,0,18.34,8.223,18.34,18.331c0,0.829,0.671,1.5,1.5,1.5
	s1.5-0.671,1.5-1.5c0-10.107,8.224-18.331,18.332-18.331c10.118,0,18.35,8.223,18.35,18.331c0,3.417-1.002,6.791-2.898,9.76
	L70.734,56.196h-10.65l-5.008-17.672c-0.188-0.663-0.767-1.109-1.495-1.09c-0.689,0.024-1.274,0.515-1.416,1.19L45.79,68.969
	L39.762,38.64c-0.135-0.681-0.72-1.18-1.414-1.207c-0.705-0.009-1.315,0.427-1.502,1.096l-4.329,15.513H19.147
	c-0.113,0-0.221,0.015-0.327,0.038l-7.677-9.587C8.754,41.266,7.491,37.507,7.491,33.624z M45.67,87.611L21.192,57.042h12.464
	c0.673,0,1.264-0.448,1.445-1.097l2.944-10.552l6.232,31.358c0.139,0.699,0.75,1.204,1.463,1.208c0.003,0,0.005,0,0.008,0
	c0.709,0,1.322-0.497,1.468-1.191l6.633-31.57l3.657,12.907c0.184,0.646,0.772,1.091,1.443,1.091h9.39L45.67,87.611z"/>
</svg>
