<?xml version="1.0" encoding="UTF-8" standalone="no"?>
<!-- Generator: Adobe Illustrator 23.0.3, SVG Export Plug-In . SVG Version: 6.00 Build 0)  -->

<svg
   xmlns:dc="http://purl.org/dc/elements/1.1/"
   xmlns:cc="http://creativecommons.org/ns#"
   xmlns:rdf="http://www.w3.org/1999/02/22-rdf-syntax-ns#"
   xmlns:svg="http://www.w3.org/2000/svg"
   xmlns="http://www.w3.org/2000/svg"
   xmlns:sodipodi="http://sodipodi.sourceforge.net/DTD/sodipodi-0.dtd"
   xmlns:inkscape="http://www.inkscape.org/namespaces/inkscape"
   version="1.1"
   id="Layer_1"
   x="0px"
   y="0px"
   width="150px"
   height="150px"
   viewBox="0 0 150 150"
   style="enable-background:new 0 0 150 150;"
   xml:space="preserve"
   sodipodi:docname="steps.svg"
   inkscape:version="0.92.4 (5da689c313, 2019-01-14)"><metadata
   id="metadata39"><rdf:RDF><cc:Work
       rdf:about=""><dc:format>image/svg+xml</dc:format><dc:type
         rdf:resource="http://purl.org/dc/dcmitype/StillImage" /><dc:title></dc:title></cc:Work></rdf:RDF></metadata><defs
   id="defs37">
	
</defs><sodipodi:namedview
   pagecolor="#ffffff"
   bordercolor="#666666"
   borderopacity="1"
   objecttolerance="10"
   gridtolerance="10"
   guidetolerance="10"
   inkscape:pageopacity="0"
   inkscape:pageshadow="2"
   inkscape:window-width="1920"
   inkscape:window-height="1017"
   id="namedview35"
   showgrid="false"
   inkscape:lockguides="true"
   inkscape:zoom="0.27812867"
   inkscape:cx="715.9687"
   inkscape:cy="-147.56126"
   inkscape:window-x="-8"
   inkscape:window-y="-8"
   inkscape:window-maximized="1"
   inkscape:current-layer="Layer_1" />
<style
   type="text/css"
   id="style2">
	.st0{fill:#FFFFFF;}
	.st1{fill:none;stroke:#000000;stroke-width:3;stroke-linecap:round;stroke-linejoin:round;stroke-miterlimit:10;}
	.st2{fill:url(#SVGID_1_);}
	.st3{fill:url(#SVGID_2_);}
	.st4{fill:url(#SVGID_3_);}
	.st5{fill:url(#SVGID_4_);}
	.st6{fill:url(#SVGID_5_);}
	.st7{fill:url(#SVGID_6_);}
	.st8{fill:url(#SVGID_7_);}
	.st9{fill:url(#SVGID_8_);}
	.st10{fill:url(#SVGID_9_);}
	.st11{fill:url(#SVGID_10_);}
	.st12{fill:url(#SVGID_11_);}
	.st13{fill:url(#SVGID_12_);}
	.st14{fill:url(#SVGID_13_);}
	.st15{fill:url(#SVGID_14_);}
	.st16{fill:url(#SVGID_15_);}
	.st17{fill:url(#SVGID_16_);}
	.st18{fill:url(#SVGID_17_);}
	.st19{fill:url(#SVGID_18_);}
	.st20{fill:#63BE6E;}
	.st21{fill:#E53357;}
	.st22{fill:#5955A2;}
	.st23{fill:#92870B;}
	.st24{fill:#EDC21D;}
	.st25{fill:#007837;}
	.st26{fill:#EC694B;}
	.st27{fill:#3D64A9;}
	.st28{fill:#9A782E;}
	.st29{fill:#A8B436;}
	.st30{fill:#F7F7F7;}
	.st31{fill:url(#SVGID_19_);}
	.st32{fill:url(#SVGID_20_);}
	.st33{fill:url(#SVGID_21_);}
	.st34{fill:url(#SVGID_22_);}
	.st35{fill:url(#SVGID_23_);}
	.st36{fill:url(#SVGID_24_);}
	.st37{fill:url(#SVGID_25_);}
	.st38{fill:url(#SVGID_26_);}
	.st39{fill:url(#SVGID_27_);}
	.st40{fill:url(#SVGID_28_);}
	.st41{fill:url(#SVGID_29_);}
	.st42{fill:url(#SVGID_30_);}
	.st43{fill:url(#SVGID_31_);}
	.st44{fill:url(#SVGID_32_);}
	.st45{fill:url(#SVGID_33_);}
	.st46{fill:url(#SVGID_34_);}
	.st47{fill:url(#SVGID_35_);}
	.st48{fill:url(#SVGID_36_);}
	.st49{fill:url(#SVGID_37_);}
	.st50{fill:url(#SVGID_38_);}
	.st51{fill:url(#SVGID_39_);}
	.st52{fill:url(#SVGID_40_);}
	.st53{fill:url(#SVGID_41_);}
	.st54{fill:url(#SVGID_42_);}
	.st55{fill:url(#SVGID_43_);}
	.st56{fill:url(#SVGID_44_);}
	.st57{fill:url(#SVGID_45_);}
	.st58{fill:url(#SVGID_46_);}
	.st59{fill:url(#SVGID_47_);}
	.st60{fill:url(#SVGID_48_);}
	.st61{fill:url(#SVGID_49_);}
	.st62{fill:url(#SVGID_50_);}
	.st63{fill:#0C509F;}
	.st64{fill:url(#SVGID_51_);}
	.st65{fill:url(#SVGID_52_);}
	.st66{fill:url(#SVGID_53_);}
	.st67{fill:url(#SVGID_54_);}
	.st68{fill:url(#SVGID_55_);}
	.st69{fill:url(#SVGID_56_);}
	.st70{fill:url(#SVGID_57_);}
	.st71{fill:url(#SVGID_58_);}
	.st72{fill:url(#SVGID_59_);}
	.st73{fill:url(#SVGID_60_);}
	.st74{fill:url(#SVGID_61_);}
	.st75{fill:url(#SVGID_62_);}
	.st76{fill:url(#SVGID_63_);}
	.st77{fill:url(#SVGID_64_);}
	.st78{fill:url(#SVGID_65_);}
	.st79{fill:url(#SVGID_66_);}
	.st80{fill:url(#SVGID_67_);}
	.st81{fill:url(#SVGID_68_);}
	.st82{fill:url(#SVGID_69_);}
	.st83{fill:url(#SVGID_70_);}
	.st84{fill:url(#SVGID_71_);}
	.st85{fill:url(#SVGID_72_);}
	.st86{fill:url(#SVGID_73_);}
	.st87{fill:url(#SVGID_74_);}
	.st88{fill:url(#SVGID_75_);}
	.st89{fill:url(#SVGID_76_);}
	.st90{fill:url(#SVGID_77_);}
	.st91{fill:url(#SVGID_78_);}
	.st92{fill:url(#SVGID_79_);}
	.st93{fill:url(#SVGID_80_);}
	.st94{fill:url(#SVGID_81_);}
	.st95{fill:url(#SVGID_82_);}
	.st96{fill:url(#SVGID_83_);}
	.st97{fill:url(#SVGID_84_);}
	.st98{fill:url(#SVGID_85_);}
	.st99{fill:url(#SVGID_86_);}
	.st100{fill:url(#SVGID_87_);}
	.st101{fill:url(#SVGID_88_);}
	.st102{fill:url(#SVGID_89_);}
	.st103{fill:url(#SVGID_90_);}
	.st104{fill:url(#SVGID_91_);}
	.st105{fill:url(#SVGID_92_);}
	.st106{fill:url(#SVGID_93_);}
	.st107{fill:url(#SVGID_94_);}
	.st108{fill:url(#SVGID_95_);}
	.st109{fill:url(#SVGID_96_);}
	.st110{fill:url(#SVGID_97_);}
	.st111{fill:url(#SVGID_98_);}
	.st112{fill:url(#SVGID_99_);}
	.st113{fill:url(#SVGID_100_);}
</style>

<g
   id="g30">
		<path
   inkscape:connector-curvature="0"
   id="path6"
   d="m 72.7,105.7 c -19.2,0 -40.7,-0.2 -49.5,-0.3 -3.2,0 -5.7,-2.6 -5.7,-5.8 v -5 c -1,-1.2 -2.8,-4.3 -3,-11.1 -0.2,-8.5 1.6,-25.1 1.7,-25.9 0.2,-2.7 2.4,-7.9 9.4,-7.5 2.6,0.2 4.4,1.1 5.3,2.7 1,1.7 0.6,3.8 0.1,5.2 l 16.2,5.8 14.4,-13.4 c 1.9,-1.7 4.5,-2.3 6.9,-1.3 l 56.8,21.6 c 2,0.2 16.3,2.3 17.6,11.6 1,7.7 0.8,15.2 -8.1,17.9 -1,0.3 -1.9,0.6 -2.9,0.9 -5.7,1.8 -11.6,3.7 -28.6,4.3 -6.5,0.2 -18,0.3 -30.6,0.3 z m -48,-52.6 c -5,0 -5.5,4.3 -5.6,4.8 0,0.2 -1.9,17.2 -1.6,25.5 0.2,7.4 2.4,9.5 2.5,9.5 0.4,0.3 0.5,0.7 0.5,1.2 v 5.6 c 0,1.5 1.2,2.8 2.8,2.8 14.6,0.1 63.5,0.6 80,0 16.6,-0.6 22,-2.3 27.8,-4.2 1,-0.3 1.9,-0.6 2.9,-0.9 5.7,-1.7 7.2,-5.5 6,-14.6 -0.8,-6.2 -11.2,-8.6 -15.1,-9.1 -0.1,0 -0.3,0 -0.4,-0.1 l -57,-21.7 c -1.3,-0.5 -2.7,-0.2 -3.8,0.7 l -15.2,14 c -0.4,0.4 -1,0.5 -1.5,0.3 L 28.4,60.3 C 28,60.2 27.7,59.8 27.5,59.4 27.3,59 27.4,58.5 27.6,58.1 c 0.3,-0.6 1.2,-2.7 0.6,-3.9 -0.5,-0.9 -1.8,-1.1 -2.9,-1.2 -0.2,0.1 -0.4,0.1 -0.6,0.1 z" />
		<path
   inkscape:connector-curvature="0"
   id="path8"
   d="m 97.9,97.2 c -19.7,0 -42,-1.6 -43.8,-1.7 H 19 c -0.8,0 -1.5,-0.7 -1.5,-1.5 0,-0.8 0.7,-1.5 1.5,-1.5 h 35.1 c 0,0 0.1,0 0.1,0 0.5,0 52.7,3.7 68.7,0 15.5,-3.5 18,-4.8 18.2,-4.8 0.7,-0.4 1.6,-0.1 2,0.6 0.4,0.7 0.1,1.6 -0.6,2 -0.4,0.2 -3,1.5 -18.9,5.1 -5.6,1.3 -15.3,1.8 -25.7,1.8 z" />
		<path
   inkscape:connector-curvature="0"
   id="path10"
   d="m 48.2,95.5 c -0.6,0 -1.1,-0.3 -1.4,-0.8 0,-0.1 -3.1,-6.4 -8.6,-15.1 C 33,71.4 16.6,70 16.5,69.9 c -0.8,-0.1 -1.4,-0.8 -1.4,-1.6 0.1,-0.8 0.8,-1.4 1.6,-1.4 0.7,0.1 18,1.6 24,11 5.6,8.9 8.7,15.2 8.8,15.4 0.4,0.7 0,1.6 -0.7,2 -0.1,0.1 -0.4,0.2 -0.6,0.2 z" />
		<path
   inkscape:connector-curvature="0"
   id="path12"
   d="m 92.7,97.1 c -0.4,0 -0.8,-0.2 -1.1,-0.5 C 91,96 91.1,95 91.7,94.5 c 2.2,-2 13.6,-12 16.9,-12.8 0.8,-0.2 2.2,-0.4 4.1,-0.7 5.6,-0.9 16.1,-2.6 22.3,-5.2 0.8,-0.3 1.6,0 2,0.8 0.3,0.8 0,1.6 -0.8,2 -6.5,2.8 -16.8,4.5 -23,5.5 -1.8,0.3 -3.2,0.5 -3.9,0.7 -1.7,0.4 -9.2,6.5 -15.6,12.1 -0.3,0.1 -0.7,0.2 -1,0.2 z" />
		<path
   inkscape:connector-curvature="0"
   id="path14"
   d="m 101.9,88.7 c -22.5,0 -62.2,-8.4 -62.7,-8.5 -0.8,-0.2 -1.3,-1 -1.2,-1.8 0.1,-0.8 1,-1.3 1.8,-1.2 0.4,0.1 40.9,8.7 62.9,8.4 0,0 0,0 0,0 0.8,0 1.5,0.7 1.5,1.5 0,0.8 -0.7,1.5 -1.5,1.5 -0.2,0.1 -0.5,0.1 -0.8,0.1 z" />
		<path
   inkscape:connector-curvature="0"
   id="path16"
   d="m 54,83 c -0.5,0 -0.9,-0.2 -1.2,-0.6 -0.5,-0.7 -0.3,-1.6 0.4,-2.1 l 17.2,-12 c 0.4,-0.3 1,-0.4 1.5,-0.1 0.1,0 6.2,2.5 25.7,2.7 13.2,0.2 15.7,-1.7 16.2,-2.1 -0.2,-0.6 0.1,-1.3 0.7,-1.7 0.7,-0.4 1.6,-0.2 2.1,0.5 0.3,0.6 0.5,1.6 0,2.6 -0.9,1.7 -3.9,3.9 -18.9,3.7 C 81.2,73.7 73.9,72 71.7,71.2 L 54.8,82.7 C 54.6,82.9 54.3,83 54,83 Z m 59.8,-13.9 c 0,0 0,0 0,0 0,0 0,0 0,0 z" />
		<path
   inkscape:connector-curvature="0"
   id="path18"
   d="M 67.1,85.2 C 66.6,85.2 66.2,85 65.9,84.6 65.4,83.9 65.5,83 66.2,82.5 L 82.4,70.4 c 0.7,-0.5 1.6,-0.4 2.1,0.3 0.5,0.7 0.4,1.6 -0.3,2.1 L 68,84.9 c -0.3,0.2 -0.6,0.3 -0.9,0.3 z" />
		<path
   inkscape:connector-curvature="0"
   id="path20"
   d="m 78.9,86.9 c -0.5,0 -0.9,-0.2 -1.2,-0.6 -0.5,-0.7 -0.3,-1.6 0.4,-2.1 L 96.6,71.1 c 0.7,-0.5 1.6,-0.3 2.1,0.4 0.5,0.7 0.3,1.6 -0.4,2.1 l -18.6,13 c -0.2,0.2 -0.5,0.3 -0.8,0.3 z" />
		<path
   inkscape:connector-curvature="0"
   id="path22"
   d="m 68.7,59.7 c -0.3,0 -0.7,-0.1 -1,-0.4 -0.6,-0.5 -0.7,-1.5 -0.2,-2.1 l 4.8,-5.7 c 0.5,-0.6 1.5,-0.7 2.1,-0.2 0.6,0.5 0.7,1.5 0.2,2.1 l -4.8,5.7 c -0.3,0.4 -0.7,0.6 -1.1,0.6 z" />
		<path
   inkscape:connector-curvature="0"
   id="path24"
   d="m 76.2,62.8 c -0.3,0 -0.7,-0.1 -0.9,-0.3 C 74.7,62 74.6,61 75.1,60.4 l 4.7,-5.9 c 0.5,-0.6 1.5,-0.7 2.1,-0.2 0.6,0.5 0.7,1.5 0.2,2.1 l -4.7,5.9 c -0.3,0.3 -0.7,0.5 -1.2,0.5 z" />
		<path
   inkscape:connector-curvature="0"
   id="path26"
   d="M 84.6,65.6 C 84.3,65.6 84,65.5 83.7,65.3 83,64.8 82.9,63.9 83.4,63.2 l 4.2,-5.8 c 0.5,-0.7 1.4,-0.8 2.1,-0.3 0.7,0.5 0.8,1.4 0.3,2.1 L 85.8,65 c -0.3,0.4 -0.8,0.6 -1.2,0.6 z" />
		<path
   inkscape:connector-curvature="0"
   id="path28"
   d="m 91.3,68.7 c -0.3,0 -0.7,-0.1 -1,-0.4 -0.6,-0.5 -0.7,-1.5 -0.2,-2.1 l 5,-5.9 c 0.5,-0.6 1.5,-0.7 2.1,-0.2 0.6,0.5 0.7,1.5 0.2,2.1 l -5,5.9 c -0.3,0.4 -0.7,0.6 -1.1,0.6 z" />
	</g>
</svg>